<?xml version="1.0" encoding="UTF-8" standalone="no"?>
<!-- Created with Inkscape (http://www.inkscape.org/) -->
<svg
   xmlns:dc="http://purl.org/dc/elements/1.1/"
   xmlns:cc="http://web.resource.org/cc/"
   xmlns:rdf="http://www.w3.org/1999/02/22-rdf-syntax-ns#"
   xmlns:svg="http://www.w3.org/2000/svg"
   xmlns="http://www.w3.org/2000/svg"
   xmlns:sodipodi="http://sodipodi.sourceforge.net/DTD/sodipodi-0.dtd"
   xmlns:inkscape="http://www.inkscape.org/namespaces/inkscape"
   width="601"
   height="301"
   id="svg2"
   sodipodi:version="0.32"
   inkscape:version="0.44"
   version="1.0"
   sodipodi:docbase="C:\Documents and Settings\ltljltlj\Desktop\Signs\Auxiliary Plates"
   sodipodi:docname="Temp plate (Outline).svg">
  <defs
     id="defs4" />
  <sodipodi:namedview
     id="base"
     pagecolor="#ffffff"
     bordercolor="#666666"
     borderopacity="1.0"
     gridtolerance="10000"
     guidetolerance="10"
     objecttolerance="10"
     inkscape:pageopacity="0.0"
     inkscape:pageshadow="2"
     inkscape:zoom="1.9873609"
     inkscape:cx="299.14997"
     inkscape:cy="146.96007"
     inkscape:document-units="px"
     inkscape:current-layer="layer1"
     width="601px"
     height="301px"
     inkscape:window-width="1280"
     inkscape:window-height="968"
     inkscape:window-x="-4"
     inkscape:window-y="-4" />
  <metadata
     id="metadata7">
    <rdf:RDF>
      <cc:Work
         rdf:about="">
        <dc:format>image/svg+xml</dc:format>
        <dc:type
           rdf:resource="http://purl.org/dc/dcmitype/StillImage" />
      </cc:Work>
    </rdf:RDF>
  </metadata>
  <g
     inkscape:label="Layer 1"
     inkscape:groupmode="layer"
     id="layer1">
    <path
       style="color:black;fill:white;fill-opacity:1;fill-rule:nonzero;stroke:black;stroke-width:1;stroke-linecap:butt;stroke-linejoin:miter;marker:none;marker-start:none;marker-mid:none;marker-end:none;stroke-miterlimit:4;stroke-dashoffset:0;stroke-opacity:1;visibility:visible;display:inline;overflow:visible"
       d="M 37.999844,0.5 L 563.00016,0.5 C 583.77507,0.5 600.5,17.22486 600.5,37.999687 L 600.5,263.00031 C 600.5,283.77514 583.77507,300.5 563.00016,300.5 L 37.999844,300.5 C 17.22493,300.5 0.5,283.77514 0.5,263.00031 L 0.5,37.999687 C 0.5,17.22486 17.22493,0.5 37.999844,0.5 z "
       id="rect1872" />
    <path
       style="color:black;fill:black;fill-opacity:1;fill-rule:nonzero;stroke:none;stroke-width:0.8735441;stroke-linecap:butt;stroke-linejoin:miter;marker:none;marker-start:none;marker-mid:none;marker-end:none;stroke-miterlimit:4;stroke-dashoffset:0;stroke-opacity:1;visibility:visible;display:inline;overflow:visible"
       d="M 38,9.875 L 563,9.875 C 578.58125,9.875 591.125,22.41875 591.125,38 L 591.125,263 C 591.125,278.58125 578.58125,291.125 563,291.125 L 38,291.125 C 22.41875,291.125 9.875,278.58125 9.875,263 L 9.875,38 C 9.875,22.41875 22.41875,9.875 38,9.875 z "
       id="rect4530" />
    <path
       style="color:black;fill:white;fill-opacity:1;fill-rule:nonzero;stroke:none;stroke-width:0.8735441;stroke-linecap:butt;stroke-linejoin:miter;marker:none;marker-start:none;marker-mid:none;marker-end:none;stroke-miterlimit:4;stroke-dashoffset:0;stroke-opacity:1;visibility:visible;display:inline;overflow:visible"
       d="M 38,25.5 L 563,25.5 C 569.925,25.5 575.5,31.075 575.5,38 L 575.5,263 C 575.5,269.925 569.925,275.5 563,275.5 L 38,275.5 C 31.075,275.5 25.5,269.925 25.5,263 L 25.5,38 C 25.5,31.075 31.075,25.5 38,25.5 z "
       id="rect4532" />
    <g
       style="overflow:visible"
       id="g5535"
       transform="translate(6.283682,-311.6946)" />
    <path
       style="font-size:186.46784973px;font-style:normal;font-variant:normal;font-weight:normal;font-stretch:normal;text-align:center;line-height:125%;writing-mode:lr-tb;text-anchor:middle;font-family:Roadgeek 2005 Series E"
       d="M 117.00001,110.01678 L 117.00001,213.00021 L 95.193626,213.00021 L 95.193626,110.01678 L 59.22503,110.01678 L 59.22503,88.000152 L 152.96861,88.000152 L 152.96861,110.01678 L 117.00001,110.01678 z M 173.97305,213.00021 L 173.97305,88.000152 L 265.10599,88.000152 L 265.10599,110.39256 L 196.7122,110.39256 L 196.7122,133.52511 L 233.98327,133.52511 L 233.98327,156.46978 L 196.7122,156.46978 L 196.7122,190.6135 L 267.34692,190.6135 L 267.34692,213.00021 L 173.97305,213.00021 z M 387.32187,213.00021 L 387.32187,136.69637 L 350.60819,213.00021 L 314.26421,136.69637 L 314.26421,213.00021 L 292.27582,213.00021 L 292.27582,88.000152 L 314.26421,88.000152 L 350.60819,162.06646 L 387.32187,88.000152 L 409.31595,88.000152 L 409.31595,213.00021 L 387.32187,213.00021 z M 541.77527,126.24886 C 541.77515,129.48283 541.341,132.71672 540.47279,135.95053 C 539.60437,139.18449 538.33129,142.23144 536.65355,145.09139 C 534.97559,147.95147 532.95648,150.59419 530.59622,153.01954 C 528.23575,155.44502 525.56351,157.46619 522.5795,159.08308 C 518.97724,161.07205 515.52959,162.37775 512.23654,163.00019 C 508.94331,163.62272 504.93639,163.93396 500.21572,163.93392 L 464.62252,163.93392 L 464.62252,213.00021 L 441.88336,213.00021 L 441.88336,88.000152 L 500.21572,88.000152 C 504.93639,88.000277 508.94331,88.374147 512.23654,89.121765 C 515.52959,89.86963 518.97724,91.237959 522.5795,93.226754 C 528.54383,96.46076 533.23423,101.00035 536.65071,106.84553 C 540.06696,112.69091 541.77515,119.15869 541.77527,126.24886 L 541.77527,126.24886 z M 519.41149,126.24886 C 519.41139,121.39812 517.73449,117.54269 514.38078,114.68259 C 511.02689,111.82267 506.55357,110.39266 500.9608,110.39256 L 464.62252,110.39256 L 464.62252,141.5472 L 500.9608,141.5472 C 506.55357,141.54728 511.02689,140.14763 514.38078,137.34828 C 517.73449,134.54906 519.41139,130.84926 519.41149,126.24886 L 519.41149,126.24886 z "
       id="text2768" />
  </g>
</svg>
